<?xml version="1.0" encoding="UTF-8" standalone="no"?>
<!-- Created with Inkscape (http://www.inkscape.org/) -->

<svg
   xmlns:dc="http://purl.org/dc/elements/1.1/"
   xmlns:cc="http://creativecommons.org/ns#"
   xmlns:rdf="http://www.w3.org/1999/02/22-rdf-syntax-ns#"
   xmlns:svg="http://www.w3.org/2000/svg"
   xmlns="http://www.w3.org/2000/svg"
   xmlns:xlink="http://www.w3.org/1999/xlink"
   xmlns:sodipodi="http://sodipodi.sourceforge.net/DTD/sodipodi-0.dtd"
   xmlns:inkscape="http://www.inkscape.org/namespaces/inkscape"
   width="210mm"
   height="297mm"
   viewBox="0 0 210 297"
   version="1.1"
   id="svg3739"
   inkscape:version="0.92.3 (2405546, 2018-03-11)"
   sodipodi:docname="logo1.svg">
  <defs
     id="defs3733" />
  <sodipodi:namedview
     id="base"
     pagecolor="#ffffff"
     bordercolor="#666666"
     borderopacity="1.0"
     inkscape:pageopacity="0.0"
     inkscape:pageshadow="2"
     inkscape:zoom="0.35"
     inkscape:cx="400"
     inkscape:cy="560"
     inkscape:document-units="mm"
     inkscape:current-layer="layer1"
     showgrid="false"
     inkscape:window-width="1600"
     inkscape:window-height="837"
     inkscape:window-x="-8"
     inkscape:window-y="-8"
     inkscape:window-maximized="1" />
  <metadata
     id="metadata3736">
    <rdf:RDF>
      <cc:Work
         rdf:about="">
        <dc:format>image/svg+xml</dc:format>
        <dc:type
           rdf:resource="http://purl.org/dc/dcmitype/StillImage" />
        <dc:title />
      </cc:Work>
    </rdf:RDF>
  </metadata>
  <g
     inkscape:label="Capa 1"
     inkscape:groupmode="layer"
     id="layer1">
    <flowRoot
       xml:space="preserve"
       id="flowRoot3758"
       style="font-style:normal;font-weight:normal;font-size:40px;line-height:1.25;font-family:sans-serif;letter-spacing:0px;word-spacing:0px;fill:#000000;fill-opacity:1;stroke:none"
       transform="scale(0.26458333)"><flowRegion
         id="flowRegion3760"><rect
           id="rect3762"
           width="425.71429"
           height="265.71429"
           x="211.42857"
           y="485.37683" /></flowRegion><flowPara
         id="flowPara3764"
         style="font-size:192.00000242px">SG</flowPara></flowRoot>    <flowRoot
       xml:space="preserve"
       id="flowRoot3766"
       style="fill:black;fill-opacity:1;stroke:none;font-family:sans-serif;font-style:normal;font-weight:normal;font-size:40px;line-height:1.25;letter-spacing:0px;word-spacing:0px"><flowRegion
         id="flowRegion3768"><rect
           id="rect3770"
           width="117.14286"
           height="117.14286"
           x="265.71429"
           y="525.37683" /></flowRegion><flowPara
         id="flowPara3772" /></flowRoot>    <path
       style="fill:#008080;stroke-width:2.85714293"
       d="m 395.79937,656.82152 c -30.58811,-11.1978 -46.74567,-46.47943 -38.80427,-84.73297 4.0719,-19.6142 20.01415,-39.12975 37.9582,-46.46614 16.39069,-6.70131 47.8041,-6.44176 66.47527,0.54922 12.66656,4.74271 14.38719,6.39326 15.18102,14.56279 0.49243,5.06761 0.33294,9.21384 -0.35442,9.21384 -0.68735,0 -6.92289,-3.1708 -13.85676,-7.04621 -26.32845,-14.71525 -60.65307,-12.20421 -76.26727,5.57939 -23.38233,26.631 -17.62224,76.4589 10.67726,92.36411 12.16299,6.83598 42.10448,8.69002 55.86274,3.45914 6.83352,-2.5981 7.32886,-4.0464 7.32886,-21.42857 v -18.64215 h -18.57143 c -16.66666,0 -18.57143,-0.58608 -18.57143,-5.71428 0,-5.31329 1.90477,-5.71429 27.14286,-5.71429 h 27.14286 v 28.30913 28.30913 l -17.69764,5.97659 c -20.60648,6.95891 -46.91437,7.5464 -63.64585,1.42127 z"
       id="path3776"
       inkscape:connector-curvature="0"
       transform="scale(0.26458333)" />
    <path
       style="fill:#008080;stroke-width:2.85714293"
       d=""
       id="path3778"
       inkscape:connector-curvature="0"
       transform="scale(0.26458333)" />
    <path
       style="fill:#008080;stroke-width:2.85714293"
       d="m 240.71429,656.49471 c -14.34807,-4.229 -15,-4.85022 -15,-14.29333 0,-5.42969 0.96428,-9.3758 2.14285,-8.76913 21.18761,10.90641 26.33063,12.19283 48.81881,12.21102 22.56673,0.0183 24.18129,-0.40213 30.71429,-7.9972 15.76816,-18.33158 4.84593,-33.75883 -27.63778,-39.03737 -28.93776,-4.70232 -43.73308,-12.09338 -49.79957,-24.87756 -9.15741,-19.29781 -0.25512,-39.51924 21.47568,-48.7817 12.44967,-5.30649 45.86295,-5.22006 61.42857,0.15892 9.81943,3.39327 11.55785,5.26199 12.34671,13.27209 0.50498,5.12752 -0.13789,8.79581 -1.42857,8.15176 -27.77407,-13.85912 -51.06977,-16.97409 -66.60179,-8.90563 -20.42496,10.61022 -17.9436,33.42905 4.33921,39.90373 6.23944,1.81298 20.34444,5.37578 31.34444,7.91732 26.51931,6.12728 36.66667,15.65478 36.66667,34.42686 0,16.33146 -6.8297,26.36767 -23.8679,35.07377 -15.11729,7.72455 -41.8231,8.3605 -64.94162,1.54645 z"
       id="path3780"
       inkscape:connector-curvature="0"
       transform="scale(0.26458333)" />
    <use
       id="use18"
       inkscape:spray-origin="#path3776"
       xlink:href="#path3776"
       x="0"
       y="0"
       width="100%"
       height="100%"
       transform="translate(0.35258756,-0.00751653)" />
    <rect
       id="rect20"
       width="93.738091"
       height="12.851191"
       x="48.380955"
       y="180.58334"
       style="stroke-width:0.26458332;fill:#008080" />
  </g>
</svg>
